<svg version="1.1" id="Ebene_1" xmlns="http://www.w3.org/2000/svg" xmlns:xlink="http://www.w3.org/1999/xlink" x="0px" y="0px" width="348px" height="2668px" viewBox="792.5 -396.4 348 2668" enable-background="new 792.5 -396.4 348 2668" xml:space="preserve">
	<g transform="translate(0 881.82)">
		<path fill="none" stroke="#222221" stroke-width="12" stroke-miterlimit="10" d="M844.296,1308.051
		c0.22,28.423,58.899,51.018,131.063,50.464c72.165-0.549,130.492-24.036,130.278-52.457c-0.101-11.725-10.362-23.021-29.089-32.015
		c0.509-1.613,0.769-3.236,0.785-4.858c-0.035-2.043-0.459-4.08-1.273-6.087c-0.434-1.073-1.023-2.192-1.631-3.189
		c-0.608-0.996-1.248-1.859-1.997-2.774c-61.143-159.099-36.725-202.703-27.49-219.347c3.33-3.791,5.038-7.803,5.038-11.837
		c-0.039-4.168-1.903-8.284-5.49-12.132c18.008-12.746,28.013-29.631,27.92-47.124c-0.138-11.809-4.874-23.369-13.74-33.536
		c3.104-4.208,4.683-8.601,4.675-13.011c-0.021-0.424-0.06-0.845-0.109-1.266l-4.509-100.801c0.082-0.308,0.139-0.616,0.171-0.923
		c-0.046-0.878-0.286-1.754-0.721-2.622l-4.305-17.34c3.165-3.535,4.784-7.235,4.788-10.949
		c-0.081-5.783-4.068-11.433-11.575-16.412l-6.305-25.419l-7.49-1040.658c16.261-8.83,25.246-20.262,25.202-32.055
		c-0.065-7.55-3.831-14.961-10.987-21.616c12.519-17.981,19.132-39.229,18.969-60.938c-0.198-23.864-8.576-46.98-23.807-65.688
		l-2.006-46.706c5.042-5.963,7.626-12.376,7.59-18.84c-1.364-13.36-11.693-23.247-16.731-27.26l10.356-355.594
		c8.158-10.674,12.771-23.802,12.675-39.401c-0.109-17.745-5.383-32.559-14.454-44.415c11.689-79.066,11.362-156.128-48.527-223.251
		c-13.135-12.404-79.237-14.044-103.03,11.976c-47.306,92.884-34.31,142.355-25.488,213.866
		c-8.578,11.844-13.567,26.354-13.77,43.391c-0.196,16.394,5.242,30.132,14.768,41.077l15.023,353.909
		c-10.861,7.996-16.655,17.464-16.598,27.124c0.086,6.402,2.745,12.715,7.81,18.552l-1.189,46.402
		c-15.229,19.014-23.435,42.453-23.295,66.544c0.19,24.061,7.628,46.834,23.077,65.624c-3.864,5.207-5.84,10.691-5.84,16.206
		c0.089,7.81,4.139,15.464,11.792,22.283c11.23,348.684,18.885,700.64,27.725,1050.522l-6.854,23.332
		c-9.656,5.609-14.79,12.149-14.756,18.802c0.049,4.04,2.002,8.03,5.771,11.783l-4.778,16.261c-0.323,0.688-0.526,1.377-0.607,2.065
		l-0.228,0.768l0.084-0.001l-0.005,0.035c0.016,0.18,0.042,0.359,0.075,0.538l-2.74,100.487c-0.107,0.673-0.178,1.347-0.211,2.021
		c0.072,4.392,1.714,8.74,4.865,12.88c-8.723,10.321-13.28,21.972-13.221,33.799c0.164,18.021,11.02,35.211,30.181,47.779
		c-2.931,3.576-4.43,7.334-4.434,11.11c0.032,4.126,1.85,8.201,5.36,12.019c9.595,16.69,34.107,60.25-24.222,219.311
		c-3.188,3.988-4.803,8.136-4.785,12.295c0.058,1.633,0.366,3.26,0.922,4.873c-18.593,9.27-28.701,20.71-28.655,32.429
		L844.296,1308.051z M904.666-943.81c15.376-9.404,30.933-11.188,46.694-13.62l1.781,21.862l-48.055,12.639L904.666-943.81z
		 M940.846,1351.11c-0.022-3.033,16.208-5.614,36.251-5.767c20.045-0.153,36.313,2.18,36.336,5.212
		c0.023,3.031-16.208,5.611-36.251,5.765C957.137,1356.473,940.869,1354.14,940.846,1351.11z" />
	</g>
	<path fill="none" stroke="#000000" stroke-width="11" stroke-miterlimit="10" d="M903.474,674.618
	c-0.243-4.396,0.1-8.837,1.02-13.197c5.644-26.626,31.138-44.541,56.932-40.004c25.789,4.535,42.113,29.788,36.465,56.406
	c-5.646,26.617-31.124,44.526-56.91,40.003c-20.976-3.687-36.318-21.357-37.506-43.211L903.474,674.618z" />
	<path fill="none" stroke="#000000" stroke-width="11" stroke-miterlimit="10" d="M908.157,865.155
	c-0.243-4.397,0.1-8.837,1.02-13.197c5.645-26.626,31.138-44.541,56.932-40.004c25.789,4.535,42.114,29.788,36.466,56.407
	c-5.646,26.617-31.125,44.525-56.91,40.002c-20.976-3.687-36.318-21.357-37.506-43.21L908.157,865.155z" />
	<path fill="none" stroke="#000000" stroke-width="11" stroke-miterlimit="10" d="M912.839,1055.69
	c-0.243-4.396,0.1-8.837,1.02-13.196c5.644-26.627,31.138-44.542,56.932-40.005c25.789,4.534,42.114,29.788,36.466,56.407
	c-5.646,26.616-31.124,44.525-56.91,40.003c-20.976-3.687-36.318-21.358-37.506-43.211L912.839,1055.69z" />
	<path fill="none" stroke="#000000" stroke-width="11" stroke-miterlimit="10" d="M917.522,1246.225
	c-0.243-4.396,0.1-8.836,1.02-13.195c5.645-26.627,31.138-44.542,56.933-40.005c25.789,4.534,42.113,29.787,36.465,56.406
	c-5.646,26.616-31.124,44.525-56.91,40.003c-20.976-3.687-36.318-21.358-37.506-43.211L917.522,1246.225z" />
	<path fill="none" stroke="#000000" stroke-width="11" stroke-miterlimit="10" d="M922.205,1436.761
	c-0.243-4.397,0.1-8.837,1.02-13.196c5.644-26.627,31.138-44.542,56.932-40.005c25.789,4.534,42.113,29.787,36.465,56.406
	c-5.646,26.616-31.124,44.525-56.909,40.003c-20.976-3.687-36.318-21.358-37.506-43.21L922.205,1436.761z" />
	<path fill="none" stroke="#000000" stroke-width="11" stroke-miterlimit="10" d="M926.888,1627.297
	c-0.243-4.397,0.1-8.837,1.02-13.196c5.645-26.627,31.138-44.542,56.932-40.005c25.789,4.534,42.114,29.787,36.466,56.406
	c-5.646,26.616-31.125,44.525-56.91,40.003c-20.976-3.687-36.318-21.358-37.506-43.21L926.888,1627.297z" />
</svg>